<svg width="42" height="35" viewBox="0 0 42 35" fill="none" xmlns="http://www.w3.org/2000/svg">
<g clip-path="url(#clip0_8_283)">
<path d="M41.4876 32.51L39.6029 30.9393L36.5754 28.4208L41.4561 24.3535C41.6639 24.1801 41.8158 23.9659 41.898 23.7306C41.9802 23.4953 41.9899 23.2466 41.9262 23.0074C41.8626 22.7682 41.7276 22.5462 41.5338 22.3619C41.34 22.1776 41.0936 22.037 40.8174 21.9531L25.1216 17.2077C24.4964 17.0194 23.8198 16.9833 23.1709 17.1038C22.522 17.2242 21.9277 17.4962 21.4576 17.8879C20.9874 18.2795 20.6608 18.7747 20.516 19.3154C20.3712 19.856 20.4142 20.4199 20.6399 20.941L26.3501 34.0208C26.4504 34.2512 26.6187 34.4568 26.8396 34.6187C27.0604 34.7805 27.3266 34.8934 27.6136 34.9468C27.7384 34.9694 27.8657 34.9807 27.9934 34.9804C28.4575 34.9803 28.9025 34.8266 29.2306 34.5531L34.1061 30.4785L37.1284 32.997L39.0131 34.5677C39.3432 34.8333 39.7852 34.9803 40.2441 34.977C40.7029 34.9737 41.1419 34.8203 41.4663 34.5499C41.7908 34.2795 41.9748 33.9137 41.9788 33.5314C41.9828 33.149 41.8064 32.7806 41.4876 32.5056V32.51ZM28.7004 30.865L23.9334 19.942L37.0409 23.9145L28.7004 30.865Z" fill="#8B949E"/>
<path d="M17.5 29.1667C14.0388 29.1667 10.6554 28.3114 7.77752 26.7089C4.89966 25.1065 2.65664 22.8289 1.33211 20.1641C0.0075777 17.4994 -0.338981 14.5672 0.336261 11.7383C1.0115 8.90938 2.67822 6.31088 5.12563 4.27137C7.57305 2.23185 10.6913 0.842922 14.0859 0.280221C17.4806 -0.28248 20.9993 0.00631873 24.197 1.1101C27.3947 2.21387 30.1278 4.08306 32.0507 6.48127C33.9736 8.87949 35 11.699 35 14.5833C35 14.9701 34.8156 15.341 34.4874 15.6145C34.1593 15.888 33.7141 16.0417 33.25 16.0417C32.7859 16.0417 32.3408 15.888 32.0126 15.6145C31.6844 15.341 31.5 14.9701 31.5 14.5833C31.5 12.2759 30.6789 10.0203 29.1406 8.10169C27.6022 6.18311 25.4157 4.68777 22.8576 3.80475C20.2994 2.92172 17.4845 2.69068 14.7687 3.14084C12.053 3.59101 9.55844 4.70215 7.60051 6.33376C5.64257 7.96537 4.3092 10.0442 3.76901 12.3073C3.22882 14.5704 3.50606 16.9162 4.56569 19.048C5.62532 21.1798 7.41973 23.0019 9.72202 24.2838C12.0243 25.5658 14.7311 26.25 17.5 26.25C17.9641 26.25 18.4093 26.4036 18.7374 26.6771C19.0656 26.9506 19.25 27.3216 19.25 27.7083C19.25 28.0951 19.0656 28.466 18.7374 28.7395C18.4093 29.013 17.9641 29.1667 17.5 29.1667Z" fill="#8B949E"/>
<path d="M14.1469 22.7794C13.9169 22.7795 13.6891 22.7419 13.4766 22.6686C11.8821 22.1167 10.4755 21.2457 9.38142 20.1326C8.28731 19.0196 7.53946 17.6989 7.20408 16.2875C6.8687 14.8761 6.95616 13.4176 7.4587 12.0411C7.96123 10.6645 8.86335 9.41255 10.0852 8.39594C11.3069 7.37933 12.8107 6.62949 14.4633 6.21281C16.1159 5.79614 17.8663 5.72549 19.5594 6.00713C21.2526 6.28877 22.8363 6.91401 24.1703 7.82747C25.5042 8.74092 26.5473 9.91441 27.2071 11.244C27.2996 11.4216 27.3487 11.6129 27.3516 11.8065C27.3544 12.0001 27.311 12.1923 27.2238 12.3717C27.1366 12.5512 27.0074 12.7144 26.8437 12.8519C26.6799 12.9893 26.485 13.0982 26.2703 13.1721C26.0556 13.2461 25.8253 13.2837 25.5929 13.2827C25.3606 13.2818 25.1308 13.2423 24.9169 13.1665C24.7031 13.0907 24.5095 12.9802 24.3475 12.8414C24.1854 12.7027 24.0582 12.5384 23.9731 12.3582C23.5322 11.4726 22.8362 10.6912 21.9466 10.0832C21.057 9.47516 20.0013 9.05924 18.8728 8.87223C17.7444 8.68522 16.578 8.73288 15.4769 9.011C14.3759 9.28912 13.374 9.78912 12.5601 10.4668C11.7461 11.1444 11.1452 11.9788 10.8104 12.8961C10.4756 13.8134 10.4173 14.7853 10.6406 15.7258C10.8639 16.6664 11.362 17.5465 12.0908 18.2885C12.8196 19.0304 13.7566 19.6112 14.8189 19.9794C15.1932 20.1085 15.5023 20.3419 15.6932 20.6397C15.8841 20.9375 15.9451 21.2812 15.8658 21.6123C15.7865 21.9434 15.5718 22.2414 15.2584 22.4553C14.9449 22.6692 14.552 22.7858 14.1469 22.7852V22.7794Z" fill="#8B949E"/>
</g>
<defs>
<clipPath id="clip0_8_283">
<rect width="42" height="35" fill="white"/>
</clipPath>
</defs>
</svg>
