<svg width="38" height="27" viewBox="0 0 38 27" fill="none" xmlns="http://www.w3.org/2000/svg">
<path d="M27.55 13.5C30.172 13.5 32.281 11.34 32.281 8.67857C32.281 6.01714 30.172 3.85714 27.55 3.85714C24.928 3.85714 22.8 6.01714 22.8 8.67857C22.8 11.34 24.928 13.5 27.55 13.5ZM13.3 11.5714C16.454 11.5714 18.981 8.98714 18.981 5.78571C18.981 2.58429 16.454 0 13.3 0C10.146 0 7.6 2.58429 7.6 5.78571C7.6 8.98714 10.146 11.5714 13.3 11.5714ZM27.55 17.3571C24.073 17.3571 17.1 19.1314 17.1 22.6607V27H38V22.6607C38 19.1314 31.027 17.3571 27.55 17.3571ZM13.3 15.4286C8.873 15.4286 0 17.685 0 22.1786V27H13.3V22.6607C13.3 21.0214 13.927 18.1479 17.803 15.9686C16.15 15.6214 14.554 15.4286 13.3 15.4286Z" fill="#323232"/>
</svg>
