<svg width="32" height="31" viewBox="0 0 32 31" fill="none" xmlns="http://www.w3.org/2000/svg">
<path d="M15.8333 0C7.09333 0 0 6.90667 0 15.4167C0 23.9267 7.09333 30.8333 15.8333 30.8333C24.5733 30.8333 31.6667 23.9267 31.6667 15.4167C31.6667 6.90667 24.5733 0 15.8333 0ZM18.0658 24.8054V27.75H13.8383V24.7746C11.1308 24.2196 8.835 22.5238 8.66083 19.5329H11.7642C11.9225 21.1517 13.0625 22.4158 15.96 22.4158C19.0633 22.4158 19.76 20.905 19.76 19.9646C19.76 18.685 19.0633 17.4825 15.5325 16.6654C11.6058 15.7404 8.91417 14.1679 8.91417 11.0075C8.91417 8.35583 11.115 6.62917 13.8383 6.05875V3.08333H18.0658V6.08958C21.0108 6.78333 22.4833 8.95708 22.5783 11.3158H19.475C19.3958 9.60458 18.4617 8.43292 15.96 8.43292C13.585 8.43292 12.16 9.48125 12.16 10.9613C12.16 12.2563 13.1892 13.1042 16.3875 13.9058C19.5858 14.7075 23.0058 16.0488 23.0058 19.9338C22.99 22.755 20.8208 24.2967 18.0658 24.8054Z" fill="#8B949E"/>
</svg>
