<svg width="27" height="27" viewBox="0 0 27 27" fill="none" xmlns="http://www.w3.org/2000/svg">
<path d="M23.8223 14.8219C23.8802 14.4 23.9091 13.9641 23.9091 13.5C23.9091 13.05 23.8802 12.6 23.8079 12.1781L26.7427 9.95625C27.0029 9.75937 27.0752 9.37969 26.9161 9.09844L24.1404 4.42969C23.9669 4.12031 23.6055 4.02187 23.2874 4.12031L19.8322 5.47031C19.1093 4.93594 18.3431 4.48594 17.4901 4.14844L16.9697 0.576562C16.9119 0.239062 16.6227 0 16.2758 0H10.7242C10.3773 0 10.1026 0.239062 10.0448 0.576562L9.52431 4.14844C8.67134 4.48594 7.89066 4.95 7.18227 5.47031L3.72703 4.12031C3.40897 4.00781 3.04755 4.12031 2.87406 4.42969L0.112766 9.09844C-0.0607191 9.39375 -0.00289109 9.75937 0.28625 9.95625L3.22103 12.1781C3.14875 12.6 3.09092 13.0641 3.09092 13.5C3.09092 13.9359 3.11983 14.4 3.19212 14.8219L0.257336 17.0437C-0.00289103 17.2406 -0.0751762 17.6203 0.0838514 17.9016L2.85961 22.5703C3.03309 22.8797 3.39452 22.9781 3.71257 22.8797L7.16781 21.5297C7.89066 22.0641 8.65688 22.5141 9.50985 22.8516L10.0303 26.4234C10.1026 26.7609 10.3773 27 10.7242 27H16.2758C16.6227 27 16.9119 26.7609 16.9552 26.4234L17.4757 22.8516C18.3287 22.5141 19.1093 22.0641 19.8177 21.5297L23.273 22.8797C23.591 22.9922 23.9525 22.8797 24.1259 22.5703L26.9017 17.9016C27.0752 17.5922 27.0029 17.2406 26.7282 17.0437L23.8223 14.8219ZM13.5 18.5625C10.6375 18.5625 8.29546 16.2844 8.29546 13.5C8.29546 10.7156 10.6375 8.4375 13.5 8.4375C16.3625 8.4375 18.7045 10.7156 18.7045 13.5C18.7045 16.2844 16.3625 18.5625 13.5 18.5625Z" fill="#8B949E"/>
</svg>
